<svg xmlns="http://www.w3.org/2000/svg" viewBox="0 0 500 500"><path d="M57.12,199.1,64,205.94l16.34,16.35,19.86,19.85,17.09,17.1c2.78,2.78,5.54,5.59,8.35,8.35l.12.12V232.35l-6.92,6.92-16.62,16.62L82.07,276l-17.4,17.4c-2.82,2.82-5.67,5.63-8.48,8.48l-.12.12a18.72,18.72,0,0,0-5.17,8.05,22.64,22.64,0,0,0,0,19.26,18.78,18.78,0,0,0,5.17,8.05c4.77,4.37,11,7.62,17.68,7.32l6.64-.9a25,25,0,0,0,11-6.42l6.92-6.92L115,313.82l20.11-20.11,17.4-17.4c2.83-2.83,5.68-5.63,8.48-8.48l.12-.12a18.69,18.69,0,0,0,5.17-8,18.78,18.78,0,0,0,2.16-9.63l-.9-6.65a24.92,24.92,0,0,0-6.43-11l-6.84-6.84L137.9,209.16,118,189.31,101,172.21c-2.79-2.78-5.55-5.59-8.35-8.35l-.12-.11a18.69,18.69,0,0,0-8-5.17,18.78,18.78,0,0,0-9.63-2.16,18.78,18.78,0,0,0-9.63,2.16,18.69,18.69,0,0,0-8.05,5.17c-4.37,4.76-7.62,11-7.32,17.67l.89,6.65a25,25,0,0,0,6.43,11Z" style="fill:#f66"/><path d="M442.88,302,436,295.14l-16.34-16.35-19.86-19.85-17.09-17.1c-2.78-2.78-5.54-5.59-8.35-8.35l-.12-.12v35.36l6.92-6.92,16.62-16.62,20.12-20.12,17.4-17.4c2.82-2.82,5.67-5.63,8.48-8.48l.12-.12a18.72,18.72,0,0,0,5.17-8,22.64,22.64,0,0,0,0-19.26,18.78,18.78,0,0,0-5.17-8c-4.77-4.37-11-7.62-17.68-7.32l-6.64.9a25,25,0,0,0-11,6.42l-6.92,6.92L385,187.26l-20.11,20.11-17.4,17.4c-2.83,2.83-5.68,5.63-8.48,8.48l-.12.12a18.69,18.69,0,0,0-5.17,8,18.78,18.78,0,0,0-2.16,9.63l.9,6.65a24.92,24.92,0,0,0,6.43,11l6.84,6.84,16.34,16.35L382,311.77l17.09,17.1c2.79,2.78,5.55,5.59,8.35,8.35l.12.11a27.89,27.89,0,0,0,17.68,7.33,27.89,27.89,0,0,0,17.68-7.33c4.37-4.76,7.62-11,7.32-17.67l-.89-6.65a25,25,0,0,0-6.43-11Z" style="fill:#f66"/><path d="M220,100V387.82c0,3.89,0,7.78,0,11.67V400a22.65,22.65,0,0,0,2.58,11.56,27.07,27.07,0,0,0,15.86,15.86A22.65,22.65,0,0,0,250,430l8-1.07a30,30,0,0,0,13.23-7.72C276.6,415.34,280,408.13,280,400V112.18c0-3.89,0-7.78,0-11.67V100a22.65,22.65,0,0,0-2.58-11.56,22.4,22.4,0,0,0-6.21-9.65,22.4,22.4,0,0,0-9.65-6.21A22.65,22.65,0,0,0,250,70l-8,1.07a30,30,0,0,0-13.23,7.72C223.4,84.66,220,91.87,220,100Z" style="fill:#f66"/></svg>