<svg xmlns="http://www.w3.org/2000/svg" viewBox="0 0 360 360">
<metadata><rdf:RDF xmlns:rdf="http://www.w3.org/1999/02/22-rdf-syntax-ns#"><rdf:Description rdf:about="" xmlns:dc="http://purl.org/dc/elements/1.1/" xmlns:Iptc4xmpCore="http://iptc.org/std/Iptc4xmpCore/1.0/xmlns/"><dc:creator><rdf:Seq><rdf:li>Gregory.K</rdf:li></rdf:Seq></dc:creator><dc:rights><rdf:Alt><rdf:li xml:lang="x-default">Mozilla Public License Version 2.0</rdf:li></rdf:Alt></dc:rights><Iptc4xmpCore:CreatorContactInfo><rdf:Description><Iptc4xmpCore:CiUrlWork>https://github.com/Gregory-K</Iptc4xmpCore:CiUrlWork></rdf:Description></Iptc4xmpCore:CreatorContactInfo></rdf:Description></rdf:RDF></metadata>
<path d="M40.6,143.48,57.31,160.2l26.61,26.61L90,192.88V166.36L73.08,183.27,46,210.33l-6.19,6.19a19.34,19.34,0,0,0-5.49,13.26A14.13,14.13,0,0,0,36,237a14,14,0,0,0,3.88,6c3.57,3.28,8.27,5.72,13.26,5.5A19.59,19.59,0,0,0,66.36,243l16.91-16.91,27.05-27.05,6.19-6.19a19,19,0,0,0,0-26.52L99.8,149.65,73.19,123,67.11,117a19.35,19.35,0,0,0-13.25-5.5,14.28,14.28,0,0,0-7.23,1.62,14.1,14.1,0,0,0-6,3.88c-3.28,3.57-5.72,8.26-5.49,13.25a19.52,19.52,0,0,0,5.49,13.26Z" style="fill:#f66"/><path d="M319.4,216.52,302.69,199.8l-26.61-26.61L270,167.12v26.52l16.91-16.91L314,149.67l6.19-6.19a19.34,19.34,0,0,0,5.49-13.26A14.13,14.13,0,0,0,324,123a14,14,0,0,0-3.88-6c-3.57-3.28-8.27-5.72-13.26-5.5a19.59,19.59,0,0,0-13.26,5.5l-16.91,16.91-27.05,27.05-6.19,6.19a19,19,0,0,0,0,26.52l16.71,16.71L286.81,237l6.08,6.07a19.35,19.35,0,0,0,13.25,5.5,14.28,14.28,0,0,0,7.23-1.62,14.1,14.1,0,0,0,6-3.88c3.28-3.57,5.72-8.26,5.49-13.25a19.52,19.52,0,0,0-5.49-13.26Z" style="fill:#f66"/><path d="M158.75,72V279.22c0,2.8,0,5.61,0,8.42V288A23.67,23.67,0,0,0,165,303a16,16,0,0,0,6.84,4.39,16,16,0,0,0,8.19,1.83c5.5-.25,11.2-2.05,15-6.22a22.12,22.12,0,0,0,6.22-15V80.78c0-2.8,0-5.61,0-8.42V72a16,16,0,0,0-1.83-8.19A16,16,0,0,0,195,57a16,16,0,0,0-6.84-4.39A16,16,0,0,0,180,50.75c-5.5.25-11.2,2-15,6.22a22.12,22.12,0,0,0-6.22,15Z" style="fill:#f66"/>
</svg>
